<mxfile host="app.diagrams.net" modified="2024-04-25T12:38:42.392Z" agent="Mozilla/5.0 (Windows NT 10.0; Win64; x64) AppleWebKit/537.36 (KHTML, like Gecko) Chrome/124.0.0.0 Safari/537.36" etag="JUdeghauj055Ck0SnagE" version="24.0.0" type="device">
  <diagram name="Страница — 1" id="dO9tK8tMK0pcvdrHBsO6">
    <mxGraphModel dx="989" dy="542" grid="1" gridSize="10" guides="1" tooltips="1" connect="1" arrows="1" fold="1" page="1" pageScale="1" pageWidth="827" pageHeight="1169" math="0" shadow="0">
      <root>
        <mxCell id="0" />
        <mxCell id="1" parent="0" />
        <mxCell id="AdLATdJVcX8L5NkQcGUu-1" value="&lt;div style=&quot;background-color:#1e1f22;color:#bcbec4&quot;&gt;&lt;pre style=&quot;font-family:&#39;JetBrains Mono&#39;,monospace;font-size:9,8pt;&quot;&gt;&lt;span style=&quot;color:#e8ba36;&quot;&gt;&amp;lt;v-select&lt;br&gt;&lt;/span&gt;&lt;span style=&quot;color:#e8ba36;&quot;&gt;  &lt;/span&gt;&lt;span style=&quot;color:#bababa;&quot;&gt;:items&lt;/span&gt;&lt;span style=&quot;color:#6aab73;&quot;&gt;=&quot;&lt;/span&gt;&lt;span style=&quot;color:#c77dbb;&quot;&gt;dateOptions&lt;/span&gt;&lt;span style=&quot;color:#6aab73;&quot;&gt;&quot;&lt;br&gt;&lt;/span&gt;&lt;span style=&quot;color:#6aab73;&quot;&gt;  &lt;/span&gt;&lt;span style=&quot;color:#bababa;&quot;&gt;item-value&lt;/span&gt;&lt;span style=&quot;color:#6aab73;&quot;&gt;=&quot;value&quot;&lt;br&gt;&lt;/span&gt;&lt;span style=&quot;color:#6aab73;&quot;&gt;  &lt;/span&gt;&lt;span style=&quot;color:#bababa;&quot;&gt;item-title&lt;/span&gt;&lt;span style=&quot;color:#6aab73;&quot;&gt;=&quot;title&quot;&lt;br&gt;&lt;/span&gt;&lt;span style=&quot;color:#6aab73;&quot;&gt;  &lt;/span&gt;&lt;span style=&quot;color:#bababa;&quot;&gt;v-model&lt;/span&gt;&lt;span style=&quot;color:#6aab73;&quot;&gt;=&quot;&lt;/span&gt;&lt;span style=&quot;color:#c77dbb;&quot;&gt;selectedDate&lt;/span&gt;&lt;span style=&quot;color:#6aab73;&quot;&gt;&quot;&lt;br&gt;&lt;/span&gt;&lt;span style=&quot;color:#6aab73;&quot;&gt;  &lt;/span&gt;&lt;span style=&quot;color:#bababa;&quot;&gt;label&lt;/span&gt;&lt;span style=&quot;color:#6aab73;&quot;&gt;=&quot;Выберите дату&quot;&lt;br&gt;&lt;/span&gt;&lt;span style=&quot;color:#6aab73;&quot;&gt;  &lt;/span&gt;&lt;span style=&quot;color:#c77dbb;&quot;&gt;@update&lt;/span&gt;&lt;span style=&quot;color:#bababa;&quot;&gt;:model-value&lt;/span&gt;&lt;span style=&quot;color:#6aab73;&quot;&gt;=&quot;&lt;/span&gt;&lt;span style=&quot;color:#56a8f5;&quot;&gt;fetchAndFormatToolHistory&lt;/span&gt;&lt;span style=&quot;color:#6aab73;&quot;&gt;&quot;&lt;br&gt;&lt;/span&gt;&lt;span style=&quot;color:#e8ba36;&quot;&gt;/&amp;gt;&lt;/span&gt;&lt;/pre&gt;&lt;/div&gt;" style="rounded=0;whiteSpace=wrap;html=1;align=left;" vertex="1" parent="1">
          <mxGeometry x="60" y="180" width="330" height="120" as="geometry" />
        </mxCell>
        <mxCell id="AdLATdJVcX8L5NkQcGUu-2" value="&lt;div style=&quot;background-color:#1e1f22;color:#bcbec4&quot;&gt;&lt;pre style=&quot;font-family:&#39;JetBrains Mono&#39;,monospace;font-size:9,8pt;&quot;&gt;&lt;span style=&quot;color:#cf8e6d;&quot;&gt;async &lt;/span&gt;&lt;span style=&quot;color:#56a8f5;&quot;&gt;fetchAndFormatToolHistory&lt;/span&gt;&lt;span style=&quot;color:#e8ba36;&quot;&gt;() &lt;/span&gt;&lt;span style=&quot;color:#359ff4;&quot;&gt;{&lt;br&gt;&lt;/span&gt;&lt;span style=&quot;color:#359ff4;&quot;&gt;  &lt;/span&gt;&lt;span style=&quot;color:#cf8e6d;&quot;&gt;this&lt;/span&gt;.&lt;span style=&quot;color:#c77dbb;&quot;&gt;isLoading &lt;/span&gt;= &lt;span style=&quot;color:#cf8e6d;&quot;&gt;true&lt;br&gt;&lt;/span&gt;&lt;span style=&quot;color:#cf8e6d;&quot;&gt;  &lt;/span&gt;&lt;span style=&quot;color:#7a7e85;&quot;&gt;// console.log(&#39;Current date being sent:&#39;, this.selectedDate) // Updated to use selectedDate&lt;br&gt;&lt;/span&gt;&lt;span style=&quot;color:#7a7e85;&quot;&gt;  &lt;/span&gt;&lt;span style=&quot;color:#cf8e6d;&quot;&gt;try &lt;/span&gt;&lt;span style=&quot;color:#6e7ed9;&quot;&gt;{&lt;br&gt;&lt;/span&gt;&lt;span style=&quot;color:#6e7ed9;&quot;&gt;    &lt;/span&gt;&lt;span style=&quot;color:#cf8e6d;&quot;&gt;const &lt;/span&gt;&lt;span style=&quot;color:#a9b7c6;&quot;&gt;response &lt;/span&gt;= &lt;span style=&quot;color:#cf8e6d;&quot;&gt;await &lt;/span&gt;&lt;span style=&quot;color:#c77dba;font-style:italic;&quot;&gt;issueHistoryApi&lt;/span&gt;.&lt;span style=&quot;color:#56a8f5;&quot;&gt;fetchToolHistory&lt;/span&gt;&lt;span style=&quot;color:#e8ba36;&quot;&gt;(&lt;br&gt;&lt;/span&gt;&lt;span style=&quot;color:#e8ba36;&quot;&gt;      &lt;/span&gt;&lt;span style=&quot;color:#cf8e6d;&quot;&gt;this&lt;/span&gt;.&lt;span style=&quot;color:#c77dbb;&quot;&gt;searchQuery&lt;/span&gt;,&lt;br&gt;      &lt;span style=&quot;color:#cf8e6d;&quot;&gt;this&lt;/span&gt;.&lt;span style=&quot;color:#c77dbb;&quot;&gt;filters&lt;/span&gt;.&lt;span style=&quot;color:#c77dbb;&quot;&gt;currentPage&lt;/span&gt;,&lt;br&gt;      &lt;span style=&quot;color:#cf8e6d;&quot;&gt;this&lt;/span&gt;.&lt;span style=&quot;color:#c77dbb;&quot;&gt;filters&lt;/span&gt;.&lt;span style=&quot;color:#c77dbb;&quot;&gt;itemsPerPage&lt;/span&gt;,&lt;br&gt;      &lt;span style=&quot;color:#cf8e6d;&quot;&gt;this&lt;/span&gt;.&lt;span style=&quot;color:#c77dbb;&quot;&gt;selectedDate &lt;/span&gt;&lt;span style=&quot;color:#7a7e85;&quot;&gt;// Use the selectedDate variable here&lt;br&gt;&lt;/span&gt;&lt;span style=&quot;color:#7a7e85;&quot;&gt;    &lt;/span&gt;&lt;span style=&quot;color:#e8ba36;&quot;&gt;)&lt;br&gt;&lt;/span&gt;&lt;span style=&quot;color:#e8ba36;&quot;&gt;    &lt;/span&gt;&lt;span style=&quot;color:#cf8e6d;&quot;&gt;this&lt;/span&gt;.&lt;span style=&quot;color:#c77dbb;&quot;&gt;toolsHistory &lt;/span&gt;= &lt;span style=&quot;color:#a9b7c6;&quot;&gt;response&lt;/span&gt;.&lt;span style=&quot;color:#c77dbb;&quot;&gt;toolsHistory&lt;/span&gt;.&lt;span style=&quot;color:#56a8f5;&quot;&gt;map&lt;/span&gt;&lt;span style=&quot;color:#e8ba36;&quot;&gt;(&lt;/span&gt;&lt;span style=&quot;color:#54a857;&quot;&gt;(&lt;/span&gt;tool&lt;span style=&quot;color:#54a857;&quot;&gt;) &lt;/span&gt;=&amp;gt; &lt;span style=&quot;color:#54a857;&quot;&gt;(&lt;/span&gt;&lt;span style=&quot;color:#179387;&quot;&gt;{&lt;br&gt;&lt;/span&gt;&lt;span style=&quot;color:#179387;&quot;&gt;      &lt;/span&gt;...tool,&lt;br&gt;      &lt;span style=&quot;color:#c77dbb;&quot;&gt;first_issue_date&lt;/span&gt;: &lt;span style=&quot;color:#cf8e6d;&quot;&gt;this&lt;/span&gt;.&lt;span style=&quot;color:#56a8f5;&quot;&gt;formatDate&lt;/span&gt;&lt;span style=&quot;color:#359ff4;&quot;&gt;(&lt;/span&gt;tool.&lt;span style=&quot;color:#c77dbb;&quot;&gt;first_issue_date&lt;/span&gt;&lt;span style=&quot;color:#359ff4;&quot;&gt;)&lt;/span&gt;,&lt;br&gt;    &lt;span style=&quot;color:#179387;&quot;&gt;}&lt;/span&gt;&lt;span style=&quot;color:#54a857;&quot;&gt;)&lt;/span&gt;&lt;span style=&quot;color:#e8ba36;&quot;&gt;)&lt;br&gt;&lt;/span&gt;&lt;span style=&quot;color:#e8ba36;&quot;&gt;    &lt;/span&gt;&lt;span style=&quot;color:#cf8e6d;&quot;&gt;this&lt;/span&gt;.&lt;span style=&quot;color:#c77dbb;&quot;&gt;totalCount &lt;/span&gt;= &lt;span style=&quot;color:#a9b7c6;&quot;&gt;response&lt;/span&gt;.&lt;span style=&quot;color:#c77dbb;&quot;&gt;totalCount&lt;br&gt;&lt;/span&gt;&lt;span style=&quot;color:#c77dbb;&quot;&gt;  &lt;/span&gt;&lt;span style=&quot;color:#6e7ed9;&quot;&gt;} &lt;/span&gt;&lt;span style=&quot;color:#cf8e6d;&quot;&gt;catch &lt;/span&gt;&lt;span style=&quot;color:#e8ba36;&quot;&gt;(&lt;/span&gt;error&lt;span style=&quot;color:#e8ba36;&quot;&gt;) &lt;/span&gt;&lt;span style=&quot;color:#6e7ed9;&quot;&gt;{&lt;br&gt;&lt;/span&gt;&lt;span style=&quot;color:#6e7ed9;&quot;&gt;    &lt;/span&gt;&lt;span style=&quot;color:#c77dba;font-style:italic;&quot;&gt;console&lt;/span&gt;.&lt;span style=&quot;color:#56a8f5;&quot;&gt;error&lt;/span&gt;&lt;span style=&quot;color:#54a857;&quot;&gt;(&lt;/span&gt;&lt;span style=&quot;color:#6aab73;&quot;&gt;&#39;Ошибка при получении истории инструментов:&#39;&lt;/span&gt;, error&lt;span style=&quot;color:#54a857;&quot;&gt;)&lt;br&gt;&lt;/span&gt;&lt;span style=&quot;color:#54a857;&quot;&gt;    &lt;/span&gt;&lt;span style=&quot;color:#cf8e6d;&quot;&gt;this&lt;/span&gt;.&lt;span style=&quot;color:#56a8f5;&quot;&gt;$emit&lt;/span&gt;&lt;span style=&quot;color:#54a857;&quot;&gt;(&lt;/span&gt;&lt;span style=&quot;color:#6aab73;&quot;&gt;&#39;error&#39;&lt;/span&gt;, error&lt;span style=&quot;color:#54a857;&quot;&gt;) &lt;/span&gt;&lt;span style=&quot;color:#7a7e85;&quot;&gt;// Handling errors&lt;br&gt;&lt;/span&gt;&lt;span style=&quot;color:#7a7e85;&quot;&gt;  &lt;/span&gt;&lt;span style=&quot;color:#6e7ed9;&quot;&gt;} &lt;/span&gt;&lt;span style=&quot;color:#cf8e6d;&quot;&gt;finally &lt;/span&gt;&lt;span style=&quot;color:#6e7ed9;&quot;&gt;{&lt;br&gt;&lt;/span&gt;&lt;span style=&quot;color:#6e7ed9;&quot;&gt;    &lt;/span&gt;&lt;span style=&quot;color:#cf8e6d;&quot;&gt;this&lt;/span&gt;.&lt;span style=&quot;color:#c77dbb;&quot;&gt;isLoading &lt;/span&gt;= &lt;span style=&quot;color:#cf8e6d;&quot;&gt;false&lt;br&gt;&lt;/span&gt;&lt;span style=&quot;color:#cf8e6d;&quot;&gt;  &lt;/span&gt;&lt;span style=&quot;color:#6e7ed9;&quot;&gt;}&lt;br&gt;&lt;/span&gt;&lt;span style=&quot;color:#359ff4;&quot;&gt;}&lt;/span&gt;,&lt;/pre&gt;&lt;/div&gt;" style="text;whiteSpace=wrap;html=1;" vertex="1" parent="1">
          <mxGeometry x="430" y="320" width="560" height="360" as="geometry" />
        </mxCell>
      </root>
    </mxGraphModel>
  </diagram>
</mxfile>
